<?xml version="1.0" encoding="UTF-8" standalone="no"?>
<!-- Generator: Adobe Illustrator 25.2.3, SVG Export Plug-In . SVG Version: 6.00 Build 0)  -->

<svg
   xmlns:dc="http://purl.org/dc/elements/1.1/"
   xmlns:cc="http://creativecommons.org/ns#"
   xmlns:rdf="http://www.w3.org/1999/02/22-rdf-syntax-ns#"
   xmlns:svg="http://www.w3.org/2000/svg"
   xmlns="http://www.w3.org/2000/svg"
   xmlns:xlink="http://www.w3.org/1999/xlink"
   xmlns:sodipodi="http://sodipodi.sourceforge.net/DTD/sodipodi-0.dtd"
   xmlns:inkscape="http://www.inkscape.org/namespaces/inkscape"
   version="1.1"
   id="Layer_1"
   x="0px"
   y="0px"
   viewBox="0 0 128 128"
   style="enable-background:new 0 0 128 128;"
   xml:space="preserve"
   sodipodi:docname="icon.svg"
   inkscape:version="0.92.4 (5da689c313, 2019-01-14)"><metadata
   id="metadata6179"><rdf:RDF><cc:Work
       rdf:about=""><dc:format>image/svg+xml</dc:format><dc:type
         rdf:resource="http://purl.org/dc/dcmitype/StillImage" /></cc:Work></rdf:RDF></metadata><defs
   id="defs6177"><linearGradient
     inkscape:collect="always"
     id="linearGradient829"><stop
       style="stop-color:#02ab47;stop-opacity:1;"
       offset="0"
       id="stop825" /><stop
       style="stop-color:#0000ff;stop-opacity:1"
       offset="1"
       id="stop827" /></linearGradient><linearGradient
     inkscape:collect="always"
     xlink:href="#linearGradient829"
     id="linearGradient831"
     x1="66.016914"
     y1="55.666512"
     x2="100.01938"
     y2="126.44617"
     gradientUnits="userSpaceOnUse" /></defs><sodipodi:namedview
   pagecolor="#ffffff"
   bordercolor="#666666"
   borderopacity="1"
   objecttolerance="10"
   gridtolerance="10"
   guidetolerance="10"
   inkscape:pageopacity="0"
   inkscape:pageshadow="2"
   inkscape:window-width="1856"
   inkscape:window-height="1057"
   id="namedview6175"
   showgrid="false"
   inkscape:zoom="3.6875"
   inkscape:cx="74.918599"
   inkscape:cy="57.510162"
   inkscape:window-x="56"
   inkscape:window-y="-8"
   inkscape:window-maximized="1"
   inkscape:current-layer="Layer_1" />





















<path
   style="display:inline;fill:url(#linearGradient831);fill-opacity:1;stroke-width:0.98001635"
   d="m 96.403883,124.92467 c 0.134824,4e-5 0.268848,-0.009 0.402074,-0.0273 2.842045,-0.392 4.409973,-2.84206 7.252033,-7.15413 2.84204,-4.31208 5.88018,-9.9961 4.50816,-18.424224 C 106.90011,89.126876 97.295942,82.756794 95.825915,81.090768 94.875554,80.01369 94.620305,76.35536 91.35531,70.96467 c 1.096552,-1.380971 3.121908,-3.911413 3.686664,-4.476168 0.25459,-0.307831 0.489868,-0.629815 0.706268,-0.963171 0.336283,0.260511 1.9397,2.335104 1.9397,2.335104 0,0 0.293945,2.352056 0.489939,3.136073 0.196006,0.784011 1.470145,4.410109 1.470145,4.410109 0,0 -1.372113,2.156106 -0.490092,3.234125 0.754614,0.960416 2.146206,1.136792 3.106616,0.382179 0.32341,-0.254802 0.56849,-0.588131 0.71549,-0.970331 0.36261,-1.146622 -0.0294,-2.400902 -0.98004,-3.135916 l -0.48994,-2.646123 c 0,0 2.35198,2.548127 2.35198,2.646129 0,0.09801 -0.19597,1.763907 0.68604,2.547921 0.87222,0.71541 2.1168,0.754662 3.03801,0.09804 0.89183,-0.813413 0.96051,-2.19523 0.14709,-3.087045 l -0.049,-0.04902 c -0.44101,-0.480208 -1.02908,-0.783989 -1.66609,-0.881992 l -2.25407,-2.939969 2.54806,0.391892 c 0,0 0.78399,2.450041 3.03803,1.862032 2.25404,-0.58801 1.86204,-4.508106 -0.294,-4.704108 -0.85262,-0.156795 -1.72476,0.09804 -2.35197,0.686045 l -2.25408,-1.077934 1.66608,-0.587994 c 0.96042,0.441009 2.10702,0.156774 2.74403,-0.686047 0.7546,-1.127017 0.44096,-2.655875 -0.68605,-3.410488 -0.40181,-0.274403 -0.88193,-0.411627 -1.37192,-0.411627 -1.16622,-0.0784 -2.1757,0.803575 -2.2541,1.96979 v 0.08819 c -0.4508,0.06861 -0.91148,0.107836 -1.37209,0.09804 h -1.46997 c 0,0 -0.88197,-1.371933 -2.057983,-3.233969 -1.176024,-2.058028 -2.450139,-4.214152 -4.508172,-4.508162 -0.136082,-0.01046 -0.256342,0.07148 -0.362908,0.224918 -2.537534,0.490877 -7.085213,5.459232 -7.085213,5.459232 L 86.3254,64.333258 C 85.259727,63.167473 84.057255,61.957199 82.693653,60.70629 78.438062,56.81398 75.226666,55.669825 71.60439,54.159567 c 0.80963,-0.528283 1.99918,-1.2931 2.857197,-1.7834 1.372022,-0.784009 2.450025,-1.959996 2.450025,-3.038016 0,-1.078018 -1.960008,-3.430053 -2.744022,-4.01806 -0.02751,-0.02062 -0.05533,-0.04377 -0.08341,-0.06829 l 0.08341,-0.02977 c 0,0 -1.273998,-1.077912 -0.881989,-1.665928 0.392006,-0.588006 1.176047,-0.784041 2.842073,-0.980042 1.66603,-0.196003 2.841916,-0.293996 2.841916,-0.293996 0,0 1.176156,1.764076 2.744184,1.372097 1.479821,-0.274412 2.459792,-1.6857 2.195187,-3.165521 -0.0094,-0.05881 -0.01951,-0.107859 -0.03914,-0.166661 -0.333204,-1.48961 -1.715094,-2.489165 -3.234119,-2.351955 -0.715413,0.0784 -1.342682,0.529174 -1.666089,1.17598 l -4.018061,0.294004 4.214166,-2.74403 c 0,0 0.979993,0.784025 2.744024,-0.293997 1.764026,-1.07802 0.686035,-5.586177 -2.744024,-4.508159 -0.960417,0.313601 -1.646378,1.156574 -1.763981,2.156184 l -4.80216,3.13592 2.940127,-4.703952 c 1.205421,-0.32341 2.11677,-1.313256 2.351975,-2.548076 0.127399,-1.401423 -0.901686,-2.646064 -2.303109,-2.773475 -0.695811,-0.0686 -1.39149,0.15683 -1.910899,0.617449 -1.568028,1.078018 -0.784097,3.430066 -0.784097,3.430066 l -2.351974,4.115952 0.09788,-4.115952 c 0.646811,-0.421405 1.068345,-1.097618 1.176147,-1.86204 0,-1.078009 -0.294157,-2.45002 -2.15619,-2.45002 -1.323022,0.0098 -2.38142,1.087777 -2.38142,2.401 0,0.117602 0.0099,0.225423 0.02946,0.343024 0.137198,0.470409 0.372441,0.901637 0.686045,1.274041 0,0 1.1e-5,5.487983 -0.293997,5.683985 -0.294003,0.196002 -6.468078,1.372073 -6.762084,4.116117 -0.231861,2.627743 4.58298,5.430587 6.633951,6.501353 -0.378142,0.358903 -2.275336,0.364435 -3.987981,0.554732 -0.751891,0.04348 -1.487811,0.209604 -2.1807,0.487387 -0.46878,-0.367342 -0.950023,-0.757552 -1.445339,-1.173426 C 49.765205,38.36196 51.529155,13.469543 31.928831,8.9614677 25.460723,7.491443 18.502704,11.313546 16.934677,17.095644 c -1.372022,4.900082 -0.196008,9.408148 4.018059,11.760187 3.920066,2.058036 8.526094,0.588011 9.506108,-1.862031 0.784014,-1.862031 -1.960042,-1.469986 -3.430067,-1.469986 -4.606077,0 -4.998053,-7.938173 0.980047,-8.134176 7.154115,-0.294004 8.624153,10.19222 9.016161,13.426284 0.392007,3.234048 -8e-5,10.78022 3.233965,21.462399 1.176342,3.885489 3.014454,7.679894 5.282232,11.228224 -0.04236,2.17649 -0.235648,5.98369 -1.068065,6.608003 -0.260017,0.208011 -0.962335,0.360476 -1.739308,0.472749 -1.163888,-0.01495 -3.114883,-0.01692 -4.23884,0.115241 -1.666029,0.196009 -4.116004,-0.293928 -6.076039,1.078094 -1.960036,1.372022 -0.980087,3.527945 -1.372095,4.115956 -0.392005,0.588008 -3.62601,3.724063 -3.62601,3.724063 -0.872215,-0.333204 -1.862062,-0.1371 -2.548072,0.490104 -2.842049,2.646044 0.0979,5.880127 2.645965,4.704106 1.23482,-0.568409 1.920892,-1.9013 1.666089,-3.234123 l 2.254086,-1.862033 -1.568037,4.508162 c -1.078019,-0.08821 -2.077625,0.558462 -2.450031,1.567878 -0.50961,0.980016 -0.352855,2.175739 0.401755,2.989153 0.989818,1.068218 2.646144,1.136736 3.714362,0.146918 1.127016,-1.048617 1.303304,-2.77344 0.391889,-4.018061 l 1.372089,-2.744025 0.489943,2.842075 c -0.686013,0.54881 -1.087737,1.372068 -1.077936,2.254081 -0.19601,2.25404 3.528078,3.822084 4.998105,1.27404 1.86203,-3.136053 -1.66609,-4.116114 -1.66609,-4.116114 l -0.09804,-5.096157 1.960086,2.254083 c -0.06861,0.166613 -0.12746,0.333206 -0.166654,0.49981 -0.333204,1.450424 0.578266,2.89105 2.028691,3.224254 3.234053,1.07802 4.704098,-2.940027 3.136071,-4.606055 -0.793811,-0.862413 -1.989452,-1.234845 -3.136071,-0.980042 0,0 -2.058085,-2.351967 -1.960086,-2.645972 0.05649,-0.169447 1.408509,-0.11014 2.549512,-0.03024 0.62834,0.176589 1.453932,0.319049 2.546645,0.422135 1.274022,0.09801 5.684144,1.078139 7.840181,-0.685888 1.557932,-1.274673 1.579919,-3.566662 1.47269,-4.743584 2.517272,2.668066 5.215978,5.037017 7.935367,6.997507 2.289987,1.650919 4.666168,2.960079 6.960737,4.06852 -0.720364,0.337967 -1.389918,0.665881 -1.86458,0.929585 -1.76403,0.980015 -3.33217,1.960051 -3.626175,3.13607 -0.04643,0.16256 -0.08082,0.404595 -0.08309,0.713425 l -0.112854,-0.02739 c 0.0882,1.74443 0.323439,3.479021 0.686046,5.194051 0.137197,0.529207 0.303737,1.058427 0.489942,1.568034 -0.225404,0.617411 -0.519386,1.215171 -0.881991,1.763981 -0.686009,0.970218 -1.303423,1.989563 -1.862032,3.038178 -0.813415,-0.205801 -1.685565,-0.02947 -2.351975,0.489941 -0.1274,0.08821 -0.24509,0.196062 -0.352893,0.303862 -0.872212,0.90162 -0.852519,2.35204 0.05889,3.22426 0.862419,0.78401 2.175608,0.78401 3.038022,0 0.646811,-0.53901 1.038736,-1.32302 1.077934,-2.15603 l 1.078096,-0.88215 -0.587995,2.84207 c -0.803613,0.18621 -1.489626,0.72517 -1.862032,1.46998 -0.627209,1.19562 -0.195968,2.66578 0.980043,3.33219 0.166593,0.098 0.352765,0.18608 0.538966,0.25468 1.381823,0.49001 2.900838,-0.24496 3.381045,-1.62677 0.225402,-1.02903 -0.02943,-2.11676 -0.686047,-2.93998 l 0.980044,-2.64613 0.784096,1.56804 c -0.519408,0.70561 -0.764447,1.57781 -0.686045,2.45002 -0.01968,0.30381 0.01948,0.61744 0.09789,0.91144 0.411606,1.47983 1.950243,2.34225 3.430069,1.93064 1.421025,-0.3724 2.28349,-1.8033 1.960085,-3.23413 -0.196008,-1.27402 -1.117154,-2.30296 -2.351975,-2.64596 l -0.196107,-2.645973 1.27404,0.783933 c 0,0 0.490071,3.13604 3.528122,2.45003 2.254038,-0.49001 2.548017,-3.920083 0.881991,-4.998103 -1.862033,-1.176017 -3.038021,-0.392048 -3.038021,-0.392048 -0.695812,-0.68601 -1.342674,-1.401416 -1.960086,-2.15603 -0.34264,-0.616755 -0.734117,-1.204149 -1.174554,-1.762228 0.01456,-1.288243 0.335003,-3.460112 2.056545,-4.607809 1.542375,-0.910556 3.155921,-1.696018 4.822537,-2.343219 2.815488,1.239728 4.994717,2.386676 5.957611,3.911258 0.980017,1.470024 -0.587909,6.37011 0.196105,13.328219 0.784013,7.15413 5.5861,12.34823 7.448139,14.60227 2.428605,2.98905 5.480444,6.69025 8.222035,6.69125 z m -8.059848,-13.73669 c -0.185744,-4.8e-4 -0.373722,-0.0143 -0.562687,-0.0427 -2.037204,-0.47427 -3.319959,-2.47911 -2.910362,-4.52709 0.258693,-1.97255 2.069564,-3.37393 4.042096,-3.11524 0.161694,0.0216 0.323483,0.054 0.485166,0.0971 1.983322,0.52817 3.17974,2.53301 2.694679,4.52712 -0.361427,1.80715 -1.953348,3.06537 -3.748892,3.06077 z m 14.671675,-2.60568 c -1.76234,0.028 -3.29141,-1.29652 -3.503613,-3.08515 -0.02151,-0.16167 -0.02151,-0.33415 -0.02151,-0.49583 -0.161683,-2.03721 1.358123,-3.81563 3.384553,-3.97731 0.16168,-0.0108 0.32336,-0.0108 0.49582,-0.0108 2.06956,0.0216 3.75106,1.70305 3.77261,3.7726 0.0106,2.06955 -1.65993,3.76184 -3.72947,3.77262 h -0.0431 c -0.11923,0.0142 -0.23779,0.0221 -0.35528,0.0239 z"
   id="path4522"
   inkscape:connector-curvature="0" /></svg>